<svg width="100" height="100" viewBox="0 0 100 100" fill="none" style="width: 4rem; height: 4rem; background: none;"><path d="M81.532 20.224c-5.225-.241-12.053.405-17.284.304a579.62 579.62 0 00-48.45 1.097c-.8 12.23-1.034 24.229-1.59 35.814-.63 13.29.373 38.975.373 38.975 12.513.72 25.07.587 37.608.373 12.64-.207 21.72-.846 32.485-3.667.234-12.626.435-16.13.259-29.918-.164-12.946-.6-31.52-3.401-42.978z" fill="#38273F"></path><path d="M67.163 69.976c-.517-2.367-2.776-7.595-3.13-7.506-1.577 2.784-2.984 5.94-3.76 7.93 0 0 4.757.057 6.499.131l.31-.056.081-.499M62.897 50.55c.075-.118-1.742-3.99-2.423-5.58-.859 1.837-1.71 3.682-2.569 5.519l4.992.062M18.548 29.457l3.502-.239c-.58-1.425-1.622-3.787-2.196-5.213a22.808 22.808 0 00-1.306 5.452M38.37 59.266c-.796-1.27-1.59-2.545-2.38-3.815-.34 1.37-.681 2.734-1.028 4.103 0 0 2.455.254 3.407-.288zM34.71 77.93s2.865-.116 3.994-.109a37.231 37.231 0 00-2.7-6.969c-.43 2.36-.859 4.715-1.294 7.078z" fill="#FABBC1"></path><path d="M55.144 27.261s3.704.044 5.023-.07a20.831 20.831 0 01-2.506-5.422c-1.053 2.12-1.88 3.82-2.517 5.492M37.05 49.229c1.49.808 3.743.367 5.402.044-.738-1.793-2.297-4.905-3.193-6.528-.574 1.919-1.634 4.565-2.208 6.484M26.027 94.797s4.247-.025 5.812-.025a43.032 43.032 0 00-3.395-8.555 130.08 130.08 0 01-2.417 8.58M77.852 83.104c-.7 2.412-2.499 8.207-2.499 8.207 1.59.069 4.083-.013 5.667-.138a23.686 23.686 0 00-3.168-8.069zM80.906 47.373a196.556 196.556 0 01-2.385-8.889c-.72 2.442-2.865 8.775-2.865 8.775 1.401.441 3.786.21 5.25.114" fill="#FAC558"></path><path d="M67.65 77.294c-1.022 2.23-2.303 6.232-2.303 6.232 1.83.05 3.66.024 5.49-.064.056-.506-1.761-4.97-3.187-6.168zM64.042 30.545c-.776 2.67-2.095 5.835-2.871 8.506 0 0 4.846-.154 6.537-.198.202-1.514-2.896-6.961-3.666-8.308M27.358 62.603c-1.495 2.178-3.105 5.84-3.85 8.37l6.204-.114-.02-.182c-.775-2.696-1.558-5.386-2.334-8.074zM80.964 70.481c-.436-1.465-.871-2.937-1.306-4.406a37.604 37.604 0 00-1.357 4.678c.89.12 1.81.032 2.663-.272zM27.236 43.384c-1.072-2.917-2.139-5.84-3.212-8.757a425.414 425.414 0 00-3.363 8.46c2.183.297 4.392.551 6.575.297" fill="#F478A0"></path><path d="M68.477 60.406c2.151-.165 4.846.106 6.998-.064-.953-2.747-2.632-5.467-3.995-7.696-.965 2.4-3.003 7.76-3.003 7.76zM15.563 59.145s3.862-.04 5.023-.122a39.494 39.494 0 00-2.852-7.052c-.6 2.108-1.577 5.07-2.17 7.174zM76.426 23.433c-.788 2.068-2.202 4.998-2.208 7.215 0 0 4.202-.096 5.515-.266a318.477 318.477 0 01-3.307-6.95zM47.59 78.975c-1.042 3.616-2.765 8.447-3.806 12.064 0 0 6.014-.355 8.115-.057-.644-2.034-3.13-9.71-4.31-12.007M18.069 78.532c-1.004 2.892-1.672 7.728-1.672 7.728 1.003.005 4.271.013 4.41-.29v-.506a21.899 21.899 0 00-2.738-6.932M34.994 32.395c1.754-.126 3.515-.255 5.27-.38a28.5 28.5 0 00-2.563-5.966c-.51 1.345-2.707 6.346-2.707 6.346" fill="#90C9CD"></path><path d="M48.725 19.445c1.944 27.562.41 50.556 1.313 78.135.025.753 1.192.753 1.167 0-.896-27.58.631-50.573-1.312-78.135-.05-.75-1.218-.75-1.168 0zM47.078 19.872c-1.71 27.284-.202 50.37.157 77.706.013.75 1.18.75 1.168 0-.36-27.335-1.868-50.422-.158-77.706.05-.752-1.117-.752-1.167 0z" fill="#F478A0"></path><path d="M47.097 19.211c-4.43 6.673-11.453 11.773-19.757 11.294-.75-.044-.744 1.13 0 1.17 8.72.503 16.116-4.876 20.767-11.87.423-.63-.593-1.218-1.01-.594M58.523 54.803c-.7-9.78.556-28.522-8.36-35.353-.6-.456-1.18.562-.594 1.009 8.386 6.421 7.124 25.15 7.787 34.344.05.745 1.224.75 1.167 0" fill="#F478A0"></path><path d="M60.946 17.13c-4.114 1.42-7.117 1.938-10.771 2.12.107-.1 1.742-1.76 3.414-2.998 1.994-1.472 2.99-2.582 5.679-4.14 2.682-1.554 6.84-1.776 7.452-.356.606 1.42-1.666 3.954-5.774 5.374zm-25.202-2.937c1.085-2.813 5.736.185 6.94 1.068 1.654 1.08 3.13 2.533 4.494 3.97-.158-.012-13.157-.575-11.434-5.038zM46.439 4.048c1.206 0 1.811 5.292 1.83 6.87.032 2.21-.176 4.424-.296 6.634a37.058 37.058 0 01-1.874-7.98c-.114-.972-.619-5.524.34-5.524zm4.67 6.9c.618-2.222 3.527-7.985 5.32-7.613.959.21 2.075 2.69.144 6.799-1.464 2.791-3.969 5.184-4.505 5.721-1.08.991-2.07 1.944-2.934 2.757.725-2.538 1.268-5.12 1.975-7.664zm14.841-.932c-2.953-1.17-6.114.012-9.048 1.95 1.684-2.633 2.517-5.536 1.224-8.594-1.925-4.55-6.834 3.561-7.32 4.754-.587 1.453-1.016 2.968-1.4 4.496.075-1.528-.051-3.075-.279-4.564-.504-3.352-2.808-7.9-4.076-3.909-.625 1.965-.353 4.155-.025 6.15.404 2.425 1.331 6.099 1.483 6.604-2.55-2.387-10.444-8.554-12.059-2.683-1.268 4.602 7.484 5.56 10.046 5.914 5.603.772 11.377-.202 16.76-1.875 2.057-.833 10.676-5.883 4.694-8.243" fill="#F478A0"></path><path fill="#fff" fill-opacity="0.01" d="M99 99h1v1h-1zM0 0h1v1H0z"></path></svg>